PathFileType	4	(X/Y/Z)	 s10c0301.trc
DataRate	CameraRate	NumFrames	NumMarkers	Units	OrigDataRate	OrigDataStartFrame	OrigNumFrames
200	200	5	50	mm	200	1	2000
Frame#	Time	racr			lacr			c7			jug			rlel			rdr			llel			ldr			s2			lic			ric			lasi			rasi			rpsi			lpsi			rgt			lgt			rth1			rth2			rth3			rth4			rlfc			rmfc			rsh1			rsh2			rsh3			rsh4			rlmal			rmmal			rcal			rtoe			rmt5			lth1			lth2			lth4			lth3			llfc			lmfc			llmal			lmmal			lcal			lmt5			lsh1			lsh2			lsh3			lsh4			ltoe			SBIKE			LBIKE			RBIKE			
		X1	Y1	Z1	X2	Y2	Z2	X3	Y3	Z3	X4	Y4	Z4	X5	Y5	Z5	X6	Y6	Z6	X7	Y7	Z7	X8	Y8	Z8	X9	Y9	Z9	X10	Y10	Z10	X11	Y11	Z11	X12	Y12	Z12	X13	Y13	Z13	X14	Y14	Z14	X15	Y15	Z15	X16	Y16	Z16	X17	Y17	Z17	X18	Y18	Z18	X19	Y19	Z19	X20	Y20	Z20	X21	Y21	Z21	X22	Y22	Z22	X23	Y23	Z23	X24	Y24	Z24	X25	Y25	Z25	X26	Y26	Z26	X27	Y27	Z27	X28	Y28	Z28	X29	Y29	Z29	X30	Y30	Z30	X31	Y31	Z31	X32	Y32	Z32	X33	Y33	Z33	X34	Y34	Z34	X35	Y35	Z35	X36	Y36	Z36	X37	Y37	Z37	X38	Y38	Z38	X39	Y39	Z39	X40	Y40	Z40	X41	Y41	Z41	X42	Y42	Z42	X43	Y43	Z43	X44	Y44	Z44	X45	Y45	Z45	X46	Y46	Z46	X47	Y47	Z47	X48	Y48	Z48	X49	Y49	Z49	X50	Y50	Z50	
1	0.0050	377.057623	1248.637491	-18.896298	397.027542	1251.523341	-362.525734	399.255325	1313.699883	-189.185403	405.549508	1172.998689	-187.620888	464.810264	1024.144550	50.630039	641.053594	880.159118	1.570032	473.379869	1010.955527	-443.674456	657.443593	886.280024	-380.200995	-112.765257	1103.781864	-215.126133	61.612887	1110.047027	-357.028239	68.602789	1106.745717	-74.655417	81.087552	1018.961065	-335.495134	52.903479	1018.998788	-78.018880	-66.905265	1155.898275	-156.553965	-58.107862	1163.289547	-266.100560	-58.147676	1010.029215	-20.866283	-45.270635	985.795710	-408.084010	43.170741	914.087862	7.012755	130.836721	898.636711	2.826822	195.599215	842.800668	3.170766	145.311057	932.828995	-4.466652	300.342903	793.386706	-8.838000	303.736308	786.462045	-125.949229	254.497836	683.919106	9.649517	263.762152	596.830013	-7.736729	228.783892	518.854005	-21.262171	295.359807	597.220393	-30.720415	208.831362	420.642993	-46.005724	235.856641	443.605820	-122.799200	161.809299	394.132809	-95.635926	403.714442	393.160517	-79.572805	321.178991	359.879244	-21.727177	33.015620	878.881209	-426.150977	109.305685	838.410835	-416.543523	133.168528	864.558518	-407.198081	155.941431	762.872703	-413.385277	230.020407	680.384366	-396.652508	233.914642	673.815021	-276.591964	-31.616437	411.648389	-379.813421	-23.182810	411.097959	-298.489127	-94.591393	413.075818	-335.731306	24.244729	282.309177	-398.463072	135.319251	603.240219	-421.121407	103.801384	522.440091	-404.515262	31.985798	469.131303	-398.561539	126.602949	508.116339	-377.235584	107.724214	262.373856	-340.477135	-205.068781	835.150673	-224.827228	-78.401937	82.866103	-422.621719	-102.305470	81.301979	-24.072037	
2	0.0100	377.056800	1248.651831	-18.908746	397.016097	1251.511757	-362.503996	399.232586	1313.683485	-189.160285	405.520027	1173.020272	-187.599316	464.865021	1024.209166	50.656750	641.060715	880.138589	1.578177	473.385730	1010.980064	-443.661392	657.433113	886.283953	-380.234510	-112.798877	1103.781255	-215.157569	61.605859	1110.009108	-357.056619	68.579794	1106.701037	-74.679054	81.061889	1018.924386	-335.510864	52.935339	1019.105979	-77.905197	-66.906248	1155.962659	-156.478114	-58.110961	1163.303458	-266.137344	-58.190502	1010.045515	-20.860117	-45.305423	985.787942	-408.096316	43.129957	914.165078	7.014063	130.815755	898.731414	2.890435	195.606861	842.938299	3.262743	145.268780	932.947199	-4.414002	300.362568	793.570290	-8.727484	303.765091	786.684006	-125.842343	254.453895	684.174735	9.749740	263.738411	597.022099	-7.679180	228.736996	519.057372	-21.217727	295.330547	597.389096	-30.628008	208.800767	420.807713	-46.027648	235.847814	443.810151	-122.752388	161.694025	394.309501	-95.660415	403.693558	393.312784	-79.585533	321.124572	360.073920	-21.743439	32.944763	878.841144	-426.163952	109.215178	838.340517	-416.514543	133.094473	864.481587	-407.183062	155.831622	762.778667	-413.342048	229.900989	680.270954	-396.604787	233.754016	673.722721	-276.518998	-31.660588	411.460938	-379.819857	-23.224776	410.921501	-298.495717	-94.607821	412.841007	-335.750125	24.270547	282.131714	-398.461948	135.216670	603.106978	-421.089112	103.708153	522.298333	-404.489491	31.977075	468.920073	-398.562519	126.531845	507.974968	-377.187945	107.755235	262.315818	-340.485278	-205.057379	835.129496	-224.825848	-78.384714	82.890324	-422.603365	-102.314727	81.307423	-24.073519	
3	0.0150	377.048695	1248.684874	-18.920816	397.039954	1251.482493	-362.487708	399.227157	1313.655206	-189.150162	405.501449	1173.021959	-187.594645	464.929151	1024.263995	50.674053	641.063729	880.151728	1.540560	473.383372	1010.979394	-443.652034	657.427764	886.289736	-380.223260	-112.834845	1103.791235	-215.170776	61.598613	1109.974138	-357.096317	68.544400	1106.696558	-74.668873	81.031381	1018.872481	-335.505775	52.879460	1019.072947	-77.901563	-66.942356	1155.980476	-156.487997	-58.111323	1163.286284	-266.162123	-58.244778	1010.063641	-20.840696	-45.346621	985.776720	-408.109420	43.279412	914.546291	7.606081	130.790134	898.826646	2.951155	195.611708	843.085802	3.360354	145.228217	933.046328	-4.376720	300.347916	793.746775	-8.595951	303.810595	786.859622	-125.699965	254.425469	684.396437	9.830340	263.663164	597.285118	-7.610038	228.709031	519.261330	-21.188546	295.300782	597.606666	-30.560618	208.749828	420.971269	-46.059087	235.805208	443.938559	-122.726735	161.724464	394.618610	-95.784669	403.677224	393.476639	-79.594848	321.113881	360.270382	-21.759039	32.878843	878.796891	-426.152133	109.140940	838.281173	-416.486655	133.036719	864.378054	-407.152167	155.738224	762.685038	-413.267311	229.778261	680.167427	-396.562568	233.618698	673.660360	-276.450667	-31.693804	411.257010	-379.799854	-23.216483	410.768527	-298.479708	-94.692760	412.684561	-335.688142	24.315480	281.986840	-398.456228	135.113421	602.984647	-421.030956	103.658152	522.165070	-404.442511	31.943069	468.747762	-398.556090	126.465065	507.832920	-377.139438	107.820072	262.162987	-340.442141	-205.060991	835.132426	-224.832629	-78.405466	82.872585	-422.616882	-102.324883	81.323127	-24.070853	
4	0.0200	377.060197	1248.719576	-18.917552	397.042734	1251.461989	-362.458952	399.167213	1313.785426	-189.020746	405.708115	1172.955817	-186.608173	464.977820	1024.322068	50.693791	641.072546	880.133831	1.508769	473.742423	1011.150647	-443.155176	657.421202	886.290156	-380.234302	-112.849780	1103.803672	-215.189533	62.951981	1109.326946	-359.040146	68.566195	1106.745053	-74.665656	81.023686	1018.837504	-335.521443	52.813311	1019.078419	-77.902774	-66.924897	1155.981896	-156.532728	-58.652531	1163.527564	-264.866200	-58.308126	1010.082393	-20.826210	-45.373229	985.763368	-408.115237	43.032208	914.281956	7.118840	131.150454	898.833608	3.068150	195.715781	843.270376	3.494491	145.171770	933.158436	-4.324312	300.023872	793.365735	-8.043235	303.871763	787.056185	-125.566191	254.413984	684.582329	9.922945	263.751948	597.531641	-7.985963	228.734902	519.449432	-21.160182	295.286441	597.780554	-30.472305	209.963887	421.407288	-45.870736	235.740109	444.076258	-122.775330	161.740180	394.932084	-95.744408	403.676878	393.649766	-79.595778	321.098968	360.441352	-21.758757	32.832138	878.748629	-426.130120	109.074739	838.196069	-416.450813	132.957447	864.481997	-407.297593	156.178079	762.991370	-413.273185	229.663328	680.063117	-396.508512	233.398226	673.611067	-276.349416	-31.718107	411.056932	-379.782821	-23.277325	410.508539	-298.459256	-94.666002	412.429739	-335.738878	24.344759	281.791019	-398.437892	135.038906	602.866388	-420.984388	102.891111	520.867894	-404.375933	31.916889	468.635537	-398.416223	126.453662	507.776384	-377.298111	107.809147	261.947620	-340.472514	-205.058432	835.128644	-224.825147	-78.400861	82.911257	-422.619206	-102.322953	81.318743	-24.071044	
5	0.0250	377.006600	1248.679961	-18.954661	397.012019	1251.291130	-362.124595	399.123573	1313.528564	-189.029521	405.685640	1172.934775	-186.601338	465.102957	1024.503850	50.847140	640.760379	879.450431	1.835823	473.349891	1010.199230	-442.973672	657.464417	886.274981	-380.017361	-113.410047	1103.106272	-214.875979	62.835509	1109.129975	-358.770806	68.537339	1106.717405	-74.632312	81.249418	1018.043393	-335.847982	52.762661	1019.101868	-77.950392	-66.980378	1156.020540	-156.265492	-58.811114	1163.527994	-264.808704	-58.223096	1010.315826	-20.556935	-45.523600	985.168745	-408.085036	43.080034	914.429456	7.196345	131.258895	899.072083	3.338342	195.780658	843.448060	3.631676	145.205032	933.338215	-4.167696	300.001188	793.605636	-7.883263	303.940849	787.212295	-125.095634	254.529587	684.843564	10.146309	263.842142	597.684648	-7.752167	228.815353	519.792698	-20.972093	295.196270	597.988021	-30.188437	209.824259	421.122011	-46.045700	235.853334	444.487953	-122.641743	161.597996	395.480433	-95.230816	403.655835	393.756370	-79.654979	321.140150	360.711718	-21.655609	32.706029	877.990259	-426.077337	108.754005	837.289766	-416.151743	132.514215	863.427826	-406.882775	156.066606	762.105991	-413.560382	229.280367	678.918261	-396.011336	233.471842	673.734628	-275.661236	-32.084269	410.163499	-379.778243	-23.685400	409.752681	-298.449528	-94.921087	411.589518	-335.749783	24.103279	280.710542	-398.479812	135.128968	601.884731	-421.218747	102.870852	520.627751	-404.191511	31.780328	467.662772	-398.345336	126.265374	507.688003	-377.030293	107.487857	260.614695	-340.040779	-205.538082	834.358712	-224.707716	-78.522960	81.499542	-423.422867	-102.713230	80.507075	-24.356353	
